<svg xmlns="http://www.w3.org/2000/svg" viewBox="0 0 198 33.08">
    <defs>
        <style>.cls-1{fill:#000000;}</style>
    </defs>
    <title>LD Logo Horiz</title>
    <g id="Layer_2" data-name="Layer 2">
    <g id="Layer_2-2" data-name="Layer 2">
        <path class="cls-1" d="M0,17.8v-9H1.5v7.67h7V17.8Z"/>
        <path class="cls-1" d="M10.38,17.8v-9h1.49v9Z"/>
        <path class="cls-1" d="M24,13.16a2.16,2.16,0,0,1,1.55,2.28,2,2,0,0,1-.85,1.77,4.5,4.5,0,0,1-2.57.59H14.94v-9h7.29A4.34,4.34,0,0,1,23.48,9a2.7,2.7,0,0,1,.92.5,2.34,2.34,0,0,1,.58.78,2.58,2.58,0,0,1,.2,1,2.16,2.16,0,0,1-.28,1.1A2.57,2.57,0,0,1,24,13.16Zm-.69-1a1.09,1.09,0,0,0,.41-.86,1.11,1.11,0,0,0-.38-.88,1.54,1.54,0,0,0-1-.32H16.44v2.42h5.82A1.56,1.56,0,0,0,23.31,12.2Zm.25,4a1,1,0,0,0,.46-.94,1.23,1.23,0,0,0-.4-1,2,2,0,0,0-1.24-.31H16.44v2.53h5.71A2.7,2.7,0,0,0,23.56,16.16Z"/>
        <path class="cls-1" d="M28.2,17.8v-9h9.1v1.36H29.69v2.3H35V13.8H29.69v2.65h8V17.8Z"/>
        <path class="cls-1" d="M48.32,17.8l-2.45-3.44H41.31V17.8h-1.5v-9h7.12a3.12,3.12,0,0,1,2.24.76,2.75,2.75,0,0,1,.8,2.08,3.14,3.14,0,0,1-.17,1.06,2.35,2.35,0,0,1-.49.79,2.62,2.62,0,0,1-.75.53,3.6,3.6,0,0,1-.93.29l2.42,3.51ZM48,12.65a1.26,1.26,0,0,0,.44-1c0-1-.62-1.48-1.87-1.48H41.31V13h5.4A2,2,0,0,0,48,12.65Z"/>
        <path class="cls-1" d="M57.27,10.14V17.8h-1.5V10.14H51.46V8.78H61.58v1.36Z"/>
        <path class="cls-1" d="M69.21,14.24V17.8h-1.5V14.24L62.77,8.78h1.86L68.47,13l3.81-4.21h1.86Z"/>
        <path class="cls-1" d="M126.4,9.17a4.46,4.46,0,0,1,1.58.91,4,4,0,0,1,1,1.44,4.87,4.87,0,0,1,.35,1.87,4.1,4.1,0,0,1-.37,1.75,4.16,4.16,0,0,1-1.07,1.42,4.53,4.53,0,0,1-1.5.88,5.43,5.43,0,0,1-1.82.3h-5.92V8.84h5.64A6.34,6.34,0,0,1,126.4,9.17Zm-.48,7a2.88,2.88,0,0,0,1.59-1.6,3.28,3.28,0,0,0,.23-1.23,3.37,3.37,0,0,0-.24-1.29,3,3,0,0,0-.68-1,3.14,3.14,0,0,0-1-.64,3.92,3.92,0,0,0-1.36-.23h-4.28V16.4h4.56A3.23,3.23,0,0,0,125.92,16.18Z"/>
        <path class="cls-1" d="M136.09,14.23v3.51h-1.47V14.23l-4.87-5.39h1.83L135.37,13l3.76-4.16H141Z"/>
        <path class="cls-1" d="M151.05,17.74l-6.81-7.3v7.3h-1.48V8.84h1.84l6.8,7.31V8.84h1.47v8.9Z"/>
        <path class="cls-1" d="M164.4,17.74l-1-2h-6l-1,2h-1.61l4.71-8.9h1.85l4.71,8.9Zm-4-7.63-2.28,4.3h4.54Z"/>
        <path class="cls-1" d="M178.63,17.74V10.46h0L174,16.27l-4.58-5.81h0v7.28h-1.48V8.84h1.84L174,14.23l4.29-5.39h1.83v8.9Z"/>
        <path class="cls-1" d="M183.13,17.74V8.84h1.48v8.9Z"/>
        <path class="cls-1" d="M196.66,11.35a4.25,4.25,0,0,0-1.63-1.1,6,6,0,0,0-2.16-.35,5.37,5.37,0,0,0-1.7.25,4,4,0,0,0-1.32.71,3.35,3.35,0,0,0-.85,1.06,3,3,0,0,0-.3,1.35,3.09,3.09,0,0,0,.3,1.37,3,3,0,0,0,.85,1.07,3.86,3.86,0,0,0,1.34.69,5.69,5.69,0,0,0,1.77.25,6.08,6.08,0,0,0,2.1-.34,4.27,4.27,0,0,0,1.61-1.12l1.27.7a5.66,5.66,0,0,1-2.19,1.61,7.62,7.62,0,0,1-2.88.49,7.2,7.2,0,0,1-2.17-.31,5.62,5.62,0,0,1-1.75-.87,4.2,4.2,0,0,1-1.78-3.54A4.22,4.22,0,0,1,189,9.75a5.7,5.7,0,0,1,1.74-.88,7.74,7.74,0,0,1,5.11.27A5.73,5.73,0,0,1,198,10.87Z"/>
        <path class="cls-1" d="M95.88,33l-.43-1.17c1.68-.61,16.25-6.62,14.22-28.71a52,52,0,0,0-14-1.91,50.33,50.33,0,0,0-14.38,2l-.4-1.18a53.34,53.34,0,0,1,29.57,0l.38.13,0,.4C113.21,26,97.66,32.37,95.88,33Z"/>
        <path class="cls-1" d="M103.61,9.49s-8.8-6.61-18.39,14.33a27,27,0,0,0,9.66,9.26S88.3,7,103.61,9.49Z"/>
        <path class="cls-1" d="M101.91,5.19A3.38,3.38,0,0,0,100,3a3.2,3.2,0,0,0-.84-.24c-9-1.77-18,1.51-18,1.51-.76,8.23.89,14.42,3.28,18.58C95.67.62,104.79,10.37,104.79,10.37,108,5.22,101.91,5.19,101.91,5.19Zm-2.76.69a1.44,1.44,0,0,0-1-1,2.28,2.28,0,0,0,1.39-.31s-.07.39.55.86A1.16,1.16,0,0,0,99.15,5.88Z"/>
    </g>
    </g>
</svg>