<svg xmlns="http://www.w3.org/2000/svg" viewBox="0 0 141.29 39.4"><defs><style>.cls-1{fill:#fff}</style></defs><g id="Layer_2" data-name="Layer 2"><g id="Layer_2-2" data-name="Layer 2"><path class="cls-1" d="M43.33 15.64V3.72h2v10.12h9.2v1.8zM57 15.64V3.72h2v11.92zM75.05 9.5a2.86 2.86 0 012 3A2.69 2.69 0 0176 14.85a5.88 5.88 0 01-3.38.79h-9.55V3.72h9.64a5.2 5.2 0 011.64.28 3.38 3.38 0 011.22.65 2.85 2.85 0 01.76 1A3.25 3.25 0 0176.6 7a2.72 2.72 0 01-.38 1.45 3.23 3.23 0 01-1.17 1.05zm-.93-1.26a1.46 1.46 0 00.55-1.15 1.44 1.44 0 00-.5-1.15 2 2 0 00-1.35-.43h-7.77v3.2h7.69a2 2 0 001.38-.47zm.34 5.23a1.37 1.37 0 00.6-1.24 1.58 1.58 0 00-.52-1.31 2.63 2.63 0 00-1.63-.42h-7.86v3.34h7.54a3.62 3.62 0 001.87-.37zM80.59 15.64V3.72h12v1.79h-10v3.05h7v1.79h-7v3.49h10.48v1.8zM107.17 15.64l-3.23-4.55h-6v4.55h-2V3.72h9.4a4.15 4.15 0 013 1 3.64 3.64 0 011.06 2.75 4 4 0 01-.23 1.4 3.11 3.11 0 01-.65 1.05 3.35 3.35 0 01-1 .7 5.34 5.34 0 01-1.23.38l3.2 4.64zm-.42-6.81a1.64 1.64 0 00.58-1.36c0-1.31-.82-2-2.47-2h-7V9.3H105a2.7 2.7 0 001.75-.47zM119 5.51v10.13h-2V5.51h-5.69V3.72h13.39v1.79zM134.77 10.93v4.71h-2v-4.71l-6.52-7.21h2.45l5.08 5.56 5-5.56h2.45zM52.88 24.83a5.8 5.8 0 012 1.13 4.93 4.93 0 011.24 1.77 6 6 0 01.43 2.32A5 5 0 0154.73 34a5.46 5.46 0 01-1.85 1.09 6.64 6.64 0 01-2.25.37h-7.3v-11h7a7.78 7.78 0 012.55.37zm-.58 8.66a3.45 3.45 0 001.18-.79 3.62 3.62 0 00.78-1.19 4.31 4.31 0 000-3.11 3.8 3.8 0 00-.83-1.24 3.63 3.63 0 00-1.3-.79 4.68 4.68 0 00-1.67-.29h-5.31v7.69h5.64a4.14 4.14 0 001.51-.28zM64.85 31.08v4.34H63v-4.34l-6-6.65h2.26L64 29.56l4.64-5.13h2.27zM83.32 35.42l-8.41-9v9h-1.82v-11h2.26l8.4 9v-9h1.82v11zM99.8 35.42L98.53 33h-7.4l-1.27 2.46h-2l5.82-11H96l5.81 11zm-5-9.43L92 31.31h5.6zM117.38 35.42v-9l-5.71 7.17-5.67-7.16v9h-1.83v-11h2.27l5.28 6.65 5.3-6.65h2.26v11zM122.93 35.42v-11h1.82v11zM139.64 27.53a5.16 5.16 0 00-2-1.36 7.46 7.46 0 00-2.66-.43 6.62 6.62 0 00-2.1.31 5 5 0 00-1.63.87 4 4 0 00-1 1.31 3.89 3.89 0 00-.37 1.67 3.8 3.8 0 00.37 1.69 3.62 3.62 0 001 1.32 5.11 5.11 0 001.66.86 7.41 7.41 0 002.18.3 7.31 7.31 0 002.6-.42 5.33 5.33 0 002-1.39l1.56.87a7 7 0 01-2.7 2 9.32 9.32 0 01-3.55.61 9 9 0 01-2.69-.39 7.09 7.09 0 01-2.15-1.07 5.38 5.38 0 010-8.72 6.94 6.94 0 012.14-1.08 8.88 8.88 0 012.67-.39 8.79 8.79 0 013.64.72 7 7 0 012.69 2.13zM17.86 39.33L17.35 38c2-.74 19.35-7.88 16.94-34.2a61.84 61.84 0 00-16.68-2.32A60.51 60.51 0 00.47 3.89L0 2.49A60.47 60.47 0 0117.61 0a60.55 60.55 0 0117.61 2.49l.45.15v.48C38.5 30.94 20 38.56 17.86 39.33z"/><path class="cls-1" d="M27.06 11.3S16.58 3.43 5.17 28.37a32 32 0 0011.5 11S8.83 8.32 27.06 11.3z"/><path class="cls-1" d="M25 6.18a4 4 0 00-2.22-2.56 3.88 3.88 0 00-1-.29C11.06 1.23.37 5.13.37 5.13c-.91 9.8 1.06 17.18 3.91 22.13C17.61.74 28.48 12.35 28.48 12.35 32.24 6.22 25 6.18 25 6.18zM21.75 7a1.68 1.68 0 00-1.15-1.2 2.77 2.77 0 001.66-.37s-.09.46.65 1a1.41 1.41 0 00-1.16.57z"/></g></g></svg>