<svg xmlns="http://www.w3.org/2000/svg" viewBox="0 0 141.29 39.4">
    <defs><style>.cls-1{fill:#FFFFFF;}</style></defs>
    <title>LD Logo</title>
    <g id="Layer_2" data-name="Layer 2">
        <g id="Layer_2-2" data-name="Layer 2">
            <path class="cls-1" d="M43.33,15.64V3.72h2V13.84h9.2v1.8Z"/>
            <path class="cls-1" d="M57,15.64V3.72h2V15.64Z"/>
            <path class="cls-1" d="M75.05,9.5a2.86,2.86,0,0,1,2,3A2.69,2.69,0,0,1,76,14.85a5.88,5.88,0,0,1-3.38.79H63.07V3.72h9.64A5.2,5.2,0,0,1,74.35,4a3.38,3.38,0,0,1,1.22.65,2.85,2.85,0,0,1,.76,1A3.25,3.25,0,0,1,76.6,7a2.72,2.72,0,0,1-.38,1.45A3.23,3.23,0,0,1,75.05,9.5Zm-.93-1.26a1.46,1.46,0,0,0,.55-1.15,1.44,1.44,0,0,0-.5-1.15,2,2,0,0,0-1.35-.43H65.05v3.2h7.69A2,2,0,0,0,74.12,8.24Zm.34,5.23a1.37,1.37,0,0,0,.6-1.24,1.58,1.58,0,0,0-.52-1.31,2.63,2.63,0,0,0-1.63-.42H65.05v3.34h7.54A3.62,3.62,0,0,0,74.46,13.47Z"/>
            <path class="cls-1" d="M80.59,15.64V3.72h12V5.51h-10V8.56h7v1.79h-7v3.49H93.07v1.8Z"/>
            <path class="cls-1" d="M107.17,15.64l-3.23-4.55h-6v4.55h-2V3.72h9.4a4.15,4.15,0,0,1,3,1,3.64,3.64,0,0,1,1.06,2.75,4,4,0,0,1-.23,1.4,3.11,3.11,0,0,1-.65,1.05,3.35,3.35,0,0,1-1,.7,5.34,5.34,0,0,1-1.23.38l3.2,4.64Zm-.42-6.81a1.64,1.64,0,0,0,.58-1.36c0-1.31-.82-2-2.47-2h-7V9.3H105A2.7,2.7,0,0,0,106.75,8.83Z"/>
            <path class="cls-1" d="M119,5.51V15.64h-2V5.51h-5.69V3.72H124.7V5.51Z"/>
            <path class="cls-1" d="M134.77,10.93v4.71h-2V10.93l-6.52-7.21h2.45l5.08,5.56,5-5.56h2.45Z"/>
            <path class="cls-1" d="M52.88,24.83a5.8,5.8,0,0,1,2,1.13,4.93,4.93,0,0,1,1.24,1.77,6,6,0,0,1,.43,2.32A5,5,0,0,1,54.73,34a5.46,5.46,0,0,1-1.85,1.09,6.64,6.64,0,0,1-2.25.37h-7.3v-11h7A7.78,7.78,0,0,1,52.88,24.83Zm-.58,8.66a3.45,3.45,0,0,0,1.18-.79,3.62,3.62,0,0,0,.78-1.19,4.31,4.31,0,0,0,0-3.11,3.8,3.8,0,0,0-.83-1.24,3.63,3.63,0,0,0-1.3-.79,4.68,4.68,0,0,0-1.67-.29H45.15v7.69h5.64A4.14,4.14,0,0,0,52.3,33.49Z"/>
            <path class="cls-1" d="M64.85,31.08v4.34H63V31.08l-6-6.65h2.26L64,29.56l4.64-5.13h2.27Z"/>
            <path class="cls-1" d="M83.32,35.42l-8.41-9v9H73.09v-11h2.26l8.4,9v-9h1.82v11Z"/>
            <path class="cls-1" d="M99.8,35.42,98.53,33h-7.4l-1.27,2.46h-2l5.82-11H96l5.81,11Zm-5-9.43L92,31.31h5.6Z"/>
            <path class="cls-1" d="M117.38,35.42v-9h0l-5.71,7.17L106,26.43h0v9h-1.83v-11h2.27l5.28,6.65,5.3-6.65h2.26v11Z"/>
            <path class="cls-1" d="M122.93,35.42v-11h1.82v11Z"/>
            <path class="cls-1" d="M139.64,27.53a5.16,5.16,0,0,0-2-1.36,7.46,7.46,0,0,0-2.66-.43,6.62,6.62,0,0,0-2.1.31,5,5,0,0,0-1.63.87,4,4,0,0,0-1,1.31,3.89,3.89,0,0,0-.37,1.67,3.8,3.8,0,0,0,.37,1.69,3.62,3.62,0,0,0,1,1.32,5.11,5.11,0,0,0,1.66.86,7.41,7.41,0,0,0,2.18.3,7.31,7.31,0,0,0,2.6-.42,5.33,5.33,0,0,0,2-1.39l1.56.87a7,7,0,0,1-2.7,2,9.32,9.32,0,0,1-3.55.61,9,9,0,0,1-2.69-.39,7.09,7.09,0,0,1-2.15-1.07,5.38,5.38,0,0,1,0-8.72,6.94,6.94,0,0,1,2.14-1.08,8.88,8.88,0,0,1,2.67-.39,8.79,8.79,0,0,1,3.64.72,7,7,0,0,1,2.69,2.13Z"/>
            <path class="cls-1" d="M17.86,39.33,17.35,38c2-.74,19.35-7.88,16.94-34.2A61.84,61.84,0,0,0,17.61,1.48,60.51,60.51,0,0,0,.47,3.89L0,2.49A60.47,60.47,0,0,1,17.61,0,60.55,60.55,0,0,1,35.22,2.49l.45.15,0,.48C38.5,30.94,20,38.56,17.86,39.33Z"/>
            <path class="cls-1" d="M27.06,11.3S16.58,3.43,5.17,28.37a32,32,0,0,0,11.5,11S8.83,8.32,27.06,11.3Z"/>
            <path class="cls-1" d="M25,6.18a4,4,0,0,0-2.22-2.56,3.88,3.88,0,0,0-1-.29C11.06,1.23.37,5.13.37,5.13c-.91,9.8,1.06,17.18,3.91,22.13C17.61.74,28.48,12.35,28.48,12.35,32.24,6.22,25,6.18,25,6.18ZM21.75,7a1.68,1.68,0,0,0-1.15-1.2,2.77,2.77,0,0,0,1.66-.37s-.09.46.65,1A1.41,1.41,0,0,0,21.75,7Z"/>
        </g>
    </g>
</svg>