<svg version="1.1" id="Layer_1" xmlns="http://www.w3.org/2000/svg" x="0" y="0" viewBox="0 0 84.6 94.9" xml:space="preserve"><style>.st0{fill:#fff}</style><path class="st0" d="M33.3 51.3c-2.8 4.6-10.8 6.3-15.8 5 1.5.9 4.3 1.3 6.5 1.4-1.3 1.3-2.8 2-3.7 2.3 2.2.3 7.2-2.3 8.5-3.6-.3.6-3.8 3.6-4.4 4.2 3.3-.8 5.6-3.4 8.2-5.2-.9 3.7-2.2 7.5-1.2 11.6 1 4.7 1.9 7.4 0 12.2-1.4 3.9-4.1 7.2-6 11.1-1 1.9-2.1 2.5.2 4.1 1.6 1 3.7.4 4.9-1 1.9-2.5 1.6-7.8 2.9-10.7 1.4-3.7 4.3-6.6 5.2-10.5.7-3.1 0-5.7 1.5-8-2.4-4.5-4.5-8-6.8-12.9 0 0 0-.1 0 0z"/><path class="st0" d="M68.9 52.8c1.9 3.7 1.7 7 2.7 10.5 1 3.5 4.1 4.9 5.2 8.9 1 2.2 1.5 4.7 2.6 7.1 1.2.7 2.5-.2 2.5-1.7 7.6-.6-3.1-8.9-3.3-10.1-1-3.7-1.2-9.5-1.2-13.2 0-4.3 2.1-8 1.4-12.6-.4-4.5-2.1-8.5-4.5-12.2-4.9-7.6-7.1-12.4-15.2-16.5-5.6-2.9-14.4-8.1-20.8-7.3-2.3.2-10.2.9-11.8 2.1-1-2.9-7.6-2.9-10.3-3.3C12.5 3.9 8.6 3.1 5.9 0c2.9 5.2 7.2 9.3 12.2 8.7l-.8.4c-1 1-2.9 1.4-4.1 2.7-1.4 1.4-2.5 3.9-3.5 5.8-.3.6-.5 1.1-.8 1.7v.1c0 .1-.1.1-.1.2-3.2 1-7.2.2-8.8-2.3.6 2.9 1.5 5.5 4.8 6.2.9.2 2.1 0 2.8-.4-.8 2.2-1.2 3.5-2.2 5.7C4 31.7-.6 36 1.5 39.5c2.5 4.7 6.6 1.7 9.9.6 1.6-.6 3.7-.2 5.6-.2 2.1-.2 3.5-.8 5.8-1.4 4.5-1.4 7.8 2.5 9.7 6.8.7 1.6 1 3.2 1 4.8 2.5 4 4.7 7.8 8.2 12.5 2.9 2.5 3.7 4.5 2.9 8-.4 1.9-2.5 6.6-.6 8.2 2.1 1.9 6.6-3.1 7.2-4.7.8-2.9-2.3-5.4-1.2-8.5v-.1c.1-11.7-9.7-15.3-16.4-23.9 4.7 4.1 8.2 6.4 13.2 10.9 2.5 2.1 5.6 7.6 5.1 11.3-.1.5-.1 1-.2 1.4 2.4-1.4 5.8-4.7 8.4-3.9l.1.1c1.4 4.7 7.2 5.8 9.7 9.7 2.3 3.7 2.7 9.3 4.3 13.4 1 2.7-1.5 9.9 4.9 9.1 6.2-.8 1-7.2.4-9.9-.2-.8-.4-1.7-.6-2.5-1.1-1.3-1.8-3.6-2.1-4.9-.4-1.9-1.9-3.9-2.5-5.8-1-2.3-2.7-3.1-3.9-5.2-2.1-3.1-1-8-2.3-11.8-1.2-3.4-2.8-7.7-5.3-10.2 2.9 2.7 4.5 6.1 6.1 9.5z"/></svg>